<svg version="1.1" xmlns="http://www.w3.org/2000/svg" viewBox="0 0 394.4786575609725 613.1854980275035" width="394.4786575609725" height="613.1854980275035" class="excalidraw-svg"><!-- svg-source:excalidraw --><metadata></metadata><defs><style class="style-fonts">
      </style></defs><rect x="0" y="0" width="394.4786575609725" height="613.1854980275035" fill="#ffffff"></rect><g stroke-linecap="round" transform="translate(75.47865756097252 459) rotate(0 57 50.5)"><path d="M63.06 0.38 C72.05 0.46, 81.58 4.39, 89.12 9.39 C96.66 14.39, 104.35 22.87, 108.32 30.37 C112.28 37.88, 113.74 46.11, 112.89 54.43 C112.05 62.74, 108.71 73.3, 103.26 80.25 C97.81 87.2, 88.74 92.87, 80.2 96.14 C71.67 99.41, 61.27 100.55, 52.05 99.86 C42.83 99.16, 32.84 96.56, 24.89 91.96 C16.94 87.36, 8.59 80.05, 4.36 72.26 C0.14 64.47, -1.64 53.81, -0.45 45.22 C0.73 36.64, 5.96 27.55, 11.49 20.73 C17.02 13.91, 23.7 7.77, 32.74 4.3 C41.79 0.84, 59.72 0.35, 65.78 -0.08 C71.84 -0.52, 69.17 0.77, 69.1 1.69 M59.54 -0.53 C68.42 -1.22, 78.56 3.15, 86.59 7.4 C94.62 11.66, 103.22 17.42, 107.72 25 C112.21 32.57, 113.85 44.47, 113.58 52.87 C113.3 61.27, 110.99 68.32, 106.08 75.37 C101.17 82.43, 92.6 90.76, 84.11 95.2 C75.61 99.64, 64.49 102.13, 55.09 102.03 C45.69 101.93, 35.72 99.1, 27.69 94.6 C19.67 90.1, 11.33 82.29, 6.94 75.03 C2.55 67.77, 1.39 59.3, 1.35 51.05 C1.31 42.8, 1.98 32.97, 6.69 25.53 C11.4 18.08, 20.98 10.86, 29.61 6.4 C38.23 1.93, 53.79 -0.21, 58.44 -1.29 C63.09 -2.36, 57.37 -1.34, 57.53 -0.07" stroke="#1e1e1e" stroke-width="2" fill="none"></path></g><g stroke-linecap="round" transform="translate(257.4786575609725 457) rotate(0 63.5 52.5)"><path d="M91.69 5.3 C100.36 8.16, 108.87 14.97, 114.49 21.41 C120.1 27.86, 123.95 35.82, 125.36 43.98 C126.76 52.13, 125.79 62.68, 122.92 70.33 C120.05 77.97, 115.28 84.33, 108.14 89.86 C101.01 95.38, 89.63 100.97, 80.1 103.46 C70.58 105.95, 60.57 106.53, 50.99 104.78 C41.4 103.03, 30.32 98.29, 22.59 92.98 C14.86 87.67, 8.19 80.29, 4.58 72.91 C0.98 65.52, 0.24 56.7, 0.97 48.67 C1.71 40.63, 3.7 31.7, 9 24.67 C14.3 17.64, 24 10.65, 32.78 6.48 C41.56 2.32, 51.03 -0.49, 61.69 -0.33 C72.35 -0.18, 90.12 5.62, 96.74 7.4 C103.36 9.19, 102.12 9.52, 101.42 10.37 M61.66 1.25 C70.59 0.16, 80.63 3.23, 89.48 6.41 C98.34 9.6, 108.65 14.01, 114.77 20.36 C120.9 26.71, 125 36.6, 126.25 44.52 C127.49 52.44, 125.2 60.46, 122.24 67.88 C119.28 75.3, 115.49 83.31, 108.49 89.06 C101.48 94.81, 89.72 99.76, 80.2 102.39 C70.68 105.03, 60.81 106.34, 51.37 104.89 C41.94 103.43, 31.22 99.18, 23.6 93.67 C15.98 88.16, 9.55 79.49, 5.66 71.84 C1.77 64.19, -0.34 55.6, 0.26 47.74 C0.87 39.88, 4.22 31.73, 9.31 24.68 C14.39 17.64, 21.92 9.6, 30.78 5.48 C39.65 1.36, 57.35 0.58, 62.51 -0.01 C67.67 -0.6, 62.08 1.11, 61.74 1.93" stroke="#1e1e1e" stroke-width="2" fill="none"></path></g><g stroke-linecap="round" transform="translate(180.47865756097252 10) rotate(0 42 272)"><path d="M25.42 22.32 C28.7 8.89, 33.33 4.99, 37.04 1.69 C40.76 -1.61, 44.07 -1.02, 47.69 2.51 C51.31 6.04, 55.22 13.01, 58.75 22.9 C62.28 32.78, 66.02 46.41, 68.87 61.84 C71.71 77.28, 73.55 95.56, 75.82 115.48 C78.08 135.41, 80.99 158.14, 82.48 181.41 C83.96 204.67, 84.58 230.59, 84.73 255.09 C84.88 279.59, 84.16 304.57, 83.36 328.4 C82.57 352.24, 81.72 376.44, 79.96 398.1 C78.2 419.76, 75.35 440.49, 72.79 458.37 C70.23 476.24, 67.98 492.81, 64.61 505.34 C61.24 517.87, 56.34 527.06, 52.57 533.55 C48.8 540.04, 45.71 544.23, 41.98 544.3 C38.25 544.37, 33.79 540.66, 30.17 533.97 C26.55 527.28, 23.46 517.2, 20.27 504.17 C17.09 491.15, 13.65 474, 11.06 455.82 C8.47 437.65, 6.45 416.86, 4.75 395.12 C3.04 373.38, 1.62 349.1, 0.81 325.4 C-0.01 301.7, -0.59 277.05, -0.16 252.91 C0.28 228.78, 2.07 203.79, 3.41 180.59 C4.75 157.4, 5.73 133.88, 7.91 113.75 C10.08 93.63, 13.28 76.01, 16.45 59.83 C19.62 43.64, 24.54 23.88, 26.93 16.62 C29.31 9.36, 30.31 11.97, 30.76 16.26 M61.42 29.9 C65.02 36.2, 67.3 53.26, 70.1 69.61 C72.9 85.96, 76.19 107.04, 78.23 128 C80.26 148.96, 81.23 171.74, 82.3 195.38 C83.37 219.02, 84.76 245.34, 84.64 269.83 C84.52 294.33, 82.58 319.14, 81.59 342.34 C80.61 365.55, 80.66 388.04, 78.73 409.06 C76.81 430.08, 72.81 451.21, 70.03 468.47 C67.25 485.74, 65.38 501.34, 62.04 512.64 C58.7 523.94, 53.84 531.25, 50.02 536.29 C46.19 541.32, 42.52 544, 39.07 542.87 C35.62 541.75, 32.67 537.36, 29.31 529.55 C25.95 521.73, 22.09 509.72, 18.93 495.98 C15.77 482.25, 12.78 465.82, 10.36 447.13 C7.94 428.44, 6.07 406.46, 4.4 383.82 C2.73 361.19, 1.23 335.5, 0.36 311.33 C-0.51 287.17, -1.37 262.92, -0.81 238.83 C-0.26 214.74, 1.93 189.7, 3.67 166.81 C5.41 143.91, 7.23 120.75, 9.63 101.48 C12.02 82.22, 15.26 65.3, 18.06 51.22 C20.87 37.14, 23.14 25.38, 26.44 16.99 C29.75 8.61, 34.06 2.77, 37.9 0.91 C41.74 -0.95, 45.56 1.13, 49.47 5.83 C53.39 10.54, 59.39 24.37, 61.38 29.12 C63.37 33.87, 61.88 30.32, 61.43 34.33" stroke="#1e1e1e" stroke-width="2" fill="none"></path></g><g stroke-linecap="round"><g transform="translate(10.728657560972522 602.78125) rotate(0 44.772256898703034 -30.7805558394501)"><path d="M0.48 0.4 C15.09 -9.47, 73.35 -49.75, 88.06 -60.07 M-0.73 -0.43 C14.22 -10.59, 75.52 -51.91, 90.27 -61.97" stroke="#1e1e1e" stroke-width="2" fill="none"></path></g><g transform="translate(10.728657560972522 602.78125) rotate(0 44.772256898703034 -30.7805558394501)"><path d="M75.62 -41.71 C81.29 -50.06, 86.2 -55.7, 90.27 -61.97 M75.62 -41.71 C77.83 -46.02, 81.22 -50.86, 90.27 -61.97" stroke="#1e1e1e" stroke-width="2" fill="none"></path></g><g transform="translate(10.728657560972522 602.78125) rotate(0 44.772256898703034 -30.7805558394501)"><path d="M66.03 -55.87 C74.78 -59.56, 82.87 -60.51, 90.27 -61.97 M66.03 -55.87 C70.29 -57.24, 75.73 -59.05, 90.27 -61.97" stroke="#1e1e1e" stroke-width="2" fill="none"></path></g></g><mask></mask><g stroke-linecap="round" transform="translate(207.22865756097252 152.78125) rotate(0 10.75 13.75)"><path d="M13.75 3.5 C14.81 6.79, 16.73 8.96, 18.75 10.5 M13.75 3.5 C15.6 5.41, 16.97 7.22, 18.75 10.5 M18.75 10.5 C23.34 13.42, 23.13 14.79, 18.75 17.5 M18.75 10.5 C23.57 14.36, 19.69 13.81, 18.75 17.5 M18.75 17.5 C17.63 19.88, 17.1 21.33, 13.75 24 M18.75 17.5 C17.03 19.23, 15.71 21.52, 13.75 24 M13.75 24 C12.65 27.55, 10 26.75, 8.25 24 M13.75 24 C12.23 26.82, 12.56 28.15, 8.25 24 M8.25 24 C6.04 23.02, 4.59 21.11, 2.75 17.5 M8.25 24 C5.89 21.22, 3.78 18.72, 2.75 17.5 M2.75 17.5 C-1.55 13.67, 0.68 13.26, 2.75 10.5 M2.75 17.5 C-1.38 13.61, 2.23 15.01, 2.75 10.5 M2.75 10.5 C4.47 9.14, 6.05 5.86, 8.25 3.5 M2.75 10.5 C4.26 8.42, 5.88 6.22, 8.25 3.5 M8.25 3.5 C9.41 1.91, 10.47 0.45, 13.75 3.5 M8.25 3.5 C9.98 -0.02, 11.47 -2.04, 13.75 3.5" stroke="#1e1e1e" stroke-width="2" fill="none"></path></g></svg>